<svg width="512" height="512" viewBox="0 0 512 512" fill="none" xmlns="http://www.w3.org/2000/svg">
<rect width="512" height="512" rx="128" fill="#82175D"/>
<path d="M148 146C148 133.85 157.85 124 170 124H238C250.15 124 260 133.85 260 146V214C260 226.15 250.15 236 238 236H210C201.16 236 194 243.16 194 252V260C194 268.84 201.16 276 210 276H238C250.15 276 260 285.85 260 298V366C260 378.15 250.15 388 238 388H170C157.85 388 148 378.15 148 366V298C148 285.85 157.85 276 170 276H198C206.84 276 214 268.84 214 260V252C214 243.16 206.84 236 198 236H170C157.85 236 148 226.15 148 214V146Z" fill="white"/>
<path d="M330 146C330 133.85 339.85 124 352 124H420C432.15 124 442 133.85 442 146V214C442 226.15 432.15 236 420 236H392C383.16 236 376 243.16 376 252V260C376 268.84 383.16 276 392 276H420C432.15 276 442 285.85 442 298V366C442 378.15 432.15 388 420 388H352C339.85 388 330 378.15 330 366V298C330 285.85 339.85 276 352 276H380C388.84 276 396 268.84 396 260V252C396 243.16 388.84 236 380 236H352C339.85 236 330 226.15 330 214V146Z" fill="white"/>
</svg>
